<svg width="34" height="34" viewBox="0 0 34 34" fill="none" xmlns="http://www.w3.org/2000/svg">
<path fill-rule="evenodd" clip-rule="evenodd" d="M11.0229 27.0395L15.7623 22.1371L13.283 19.4772L8.44243 24.5647C7.76883 25.2726 7.78851 26.3903 8.48661 27.0741C9.19521 27.7682 10.3334 27.7527 11.0229 27.0395ZM16.8871 15.6893L12.432 11.0069L15.2075 8.15873L13.0102 5.90393L8.61568 6.25995L2.83337 12.431L6.26558 15.8552C6.66548 16.2542 7.31622 16.243 7.70212 15.8304L9.77215 13.6177L22.9772 27.2768C23.6666 27.99 24.8048 28.0055 25.5134 27.3114C26.2115 26.6276 26.2312 25.5099 25.5576 24.802L19.4211 18.3525L24.2279 13.3804L26.2979 15.5931C26.6838 16.0056 27.3346 16.0169 27.7345 15.6179L31.1667 12.1937L25.3844 6.02265L20.9898 5.66663L18.7925 7.92143L21.568 10.7696L16.8871 15.6893Z" fill="#BA1333"/>
</svg>
